<svg width="24" height="24" viewBox="0 0 24 24" fill="none" xmlns="http://www.w3.org/2000/svg" preserveAspectRatio="xMinYMid meet"><defs><style>.cls-1{stroke-width:.8px}.cls-1,.cls-2,.cls-3,.cls-4{fill:none}.cls-1,.cls-3,.cls-4{stroke:#1d1d1b}.cls-5{clip-path:url(#clippath)}.cls-10,.cls-2,.cls-6,.cls-7,.cls-8,.cls-9{stroke-width:0}.cls-6{fill:url(#Unbenannter_Verlauf_3-2)}.cls-7{fill:#1d1d1b}.cls-8{fill:#5f3b22}.cls-3{stroke-width:.7px}.cls-3,.cls-4{stroke-linecap:round}.cls-11{clip-path:url(#clippath-1)}.cls-12{clip-path:url(#clippath-3)}.cls-13{clip-path:url(#clippath-2)}.cls-9{fill:url(#Unbenannter_Verlauf_3)}.cls-10{fill:url(#Unbenannter_Verlauf_2)}.cls-4{stroke-width:.8px}</style><linearGradient id="Unbenannter_Verlauf_3" data-name="Unbenannter Verlauf 3" x1="-131.6" y1="1298.2" x2="-131.6" y2="1300.6" gradientTransform="translate(123.3 -1265.8)" gradientUnits="userSpaceOnUse"><stop offset="0" stop-color="#f0a829"/><stop offset="1" stop-color="#c7671a"/></linearGradient><linearGradient id="Unbenannter_Verlauf_2" data-name="Unbenannter Verlauf 2" x1="-130.9" y1="1298.6" x2="-130.9" y2="1299.8" gradientTransform="translate(123.3 -1265.8)" gradientUnits="userSpaceOnUse"><stop offset="0" stop-color="#ffeba8"/><stop offset="1" stop-color="#f8be27"/></linearGradient><linearGradient id="Unbenannter_Verlauf_3-2" data-name="Unbenannter Verlauf 3" x1="29.9" y1="-12.4" x2="29.9" y2="-12.4" gradientTransform="matrix(1 0 0 -1 0 25.3)"/><clipPath id="clippath"><path class="cls-2" d="M12.8 7s.3-1 .5-1.2c.2-.1.7-.3 1.2 0s.5.8.4 1.5v1.8s0 .7-.8.7-.9-.5-.9-.6v-2l-.4-.2z"/></clipPath><clipPath id="clippath-1"><path class="cls-2" d="M14.9 8.3s.6-.9 1.1-.9c.5 0 .9.4.8 1.1 0 .7-.4 1.7-.8 1.9-.4.1-.8 0-.9-.2-.2-.4 0-1.8 0-1.8l-.2-.2h-.2z"/></clipPath><clipPath id="clippath-2"><path class="cls-2" d="M9.5 6.4s1.4-1.5 1.7-1.6c.3 0 .6 0 .9.2.3.3.8 2.3.8 2.5 0 .1 0 .9-.7.9s-.8 0-1-.4c-.1-.1-.2-.5-.3-.9l-.2-.6H9.5z"/></clipPath><clipPath id="clippath-3"><path class="cls-2" d="M8.2 6.7c.2-.1.4-.1.4-.1s.2.2.9 0 .9-.5.9-.7c0-.2-.1-.3-.3-.4-.2 0-.4-.4-.8-.6-.4-.2-.6 0-.8 0-.2 0-.8.9-.9 1.2 0 .4.2.9.2.9l.4-.2z"/></clipPath></defs><path id="path367" class="cls-2" d="M11.8 14.5s-.1 0-.2-.1c-.8-.3-2.2-.8-2.6-1.1-.8-.5-1.1-1.4-1.1-1.4l.4-.4 6 2.3 2-1 .8-.5s.2 1.8-1 2.4c-1.2.7-2.5.5-3 .3-.5-.1-.7-.4-1.3-.7"/><path id="circle493" class="cls-2" d="M12.1 3.7c-4.5 0-8.2 3.6-8.2 8.2s3.7 8.2 8.2 8.2 8.2-3.7 8.2-8.2-3.6-8.2-8.2-8.2z"/><ellipse id="circle351" class="cls-2" cx="12.1" cy="11.9" rx="7.3" ry="7.3"/><path id="path471" class="cls-7" d="M12.1 2.9c-4.9 0-9 4-9 9s4 9 9 9 9-4 9-9-4-9-9-9zm.1 17.1c-4.5 0-8.1-3.6-8.1-8.1s3.6-8.1 8.1-8.1 8.1 3.6 8.1 8.1-3.6 8.1-8.1 8.1z"/><path class="cls-9" d="M-8.3 32.4v2.4"/><path class="cls-10" d="M-7.6 34v-1.3"/><ellipse id="ellipse353" class="cls-8" cx="15" cy="11.3" rx=".3" ry=".7" transform="rotate(-75.7 14.999 11.243)"/><ellipse id="ellipse355" class="cls-8" cx="9.3" cy="9.1" rx=".5" ry=".9" transform="rotate(-70.6 9.301 9.024)"/><ellipse id="ellipse357" class="cls-8" cx="11.6" cy="9.2" rx=".3" ry=".4" transform="rotate(-66.2 11.522 9.15)"/><ellipse id="ellipse359" class="cls-8" cx="12.5" cy="11.7" rx=".3" ry=".4" transform="rotate(-66.1 12.49 11.736)"/><g id="g369"><g id="use374"><path id="SVGID" class="cls-2" d="M7.3 12.2c1.3-.8 0-2.8-.3-3.2-.4-.4-.7-.3-.9-.1-.1.1-.1.3-.1 1.2s0 .9-.3 1.6c-.1.5.3 1.1.7 1.6.4.6 1.7 2.2 1.7 2.2l1.4 1c1.4 1 4.1 3.5 4.1 3.5s1.4 0 3-1.1c1.6-1 2.3-2.2 2.3-2.2l-1-1.2-.3-3.2-.2-.6-5 2.9-2.6-1.3-2-1.6"/></g><path id="path381" class="cls-2" d="M7.3 11.7c-.1.3-.1.5-.1.5h.1l.3-.1.6-1.5-.8-2-.8.2s.5.6.6 1.5c.2 1 .1 1.2 0 1.5z"/></g><ellipse id="ellipse385" class="cls-2" cx="10.1" cy="11.3" rx=".5" ry=".7" transform="rotate(-66.1 10.069 11.254)"/><path id="path387" class="cls-2" d="M10.2 6s-.6.3-1.2.2c-.4 0-.6-.3-.7-.8 0-.5.2-1 .2-1L7 6l.8 1.3 2.4-.7v-.7z"/><path id="path389" class="cls-2" d="M11 4.6s-.2 1 0 2c.3 1 .6 1.5.8 1.5s.8 0 .9-.2c.2-.2-.1.5-.1.5l-1.5.3-.7-1-.4-.8V5.3l.8-.5z"/><path id="path391" class="cls-2" d="M13.6 5.4V8c0 1 0 1.1.2 1.6.3.5.4.6.4.6h-1.3l-.2-1.8V7.1c.1 0 0-2 0-2l.9.2z"/><path id="path393" class="cls-4" d="M18.5 16.2s-.4-.5-.6-.6c-.1-.2 0-1.1-.2-2.4-.1-1.4-.5-1.7-.5-1.7"/><path id="path395" class="cls-2" d="M12.2 14.2s.7.2 1.7.3c2.2.3 4.2-2.4 3-4.7-1.1-2.3-2.5-2-4.1-2.7-3.2-1.3-4.6-.4-5.1-.1-.9.6-1 1.6-1 1.6l1 1.7v1.4l2.3 1.6 2.1.9z"/><path id="path397" class="cls-1" d="M16.8 9.6s0 .2.1.3c1.2 2.3-.8 5-3 4.7-1-.1-1.7-.3-1.7-.3"/><path id="path397-2" data-name="path397" class="cls-1" d="M6.8 8.7s.2-1 1-1.6c.3-.2 1.2-.8 3-.5"/><path id="path401" class="cls-2" d="M6.6 8.7s.5.6.6 1.5c.2 1 .1 1.2 0 1.5-.1.3-.1.5-.1.5h.6c.2-.5.5-1.6.5-1.6l-.8-2-.8.2z"/><g id="g403"><g id="use408"><path id="SVGID-2" data-name="SVGID" class="cls-2" d="M12.8 7s.3-1 .5-1.2c.2-.1.7-.3 1.2 0s.5.8.4 1.5v1.8s0 .7-.8.7-.9-.5-.9-.6v-2"/></g><g class="cls-5"><path id="path413" class="cls-2" d="M13.6 5.4V8c0 1 0 1.1.2 1.6.3.5.4.6.4.6h-1.3l-.2-1.8V7l-.3-.8 1.1-.9z"/></g></g><path id="path415" class="cls-4" d="M12.8 7s.3-1 .5-1.1c.2-.1.7-.3 1.2 0s.5.8.4 1.5v1.8s0 .7-.8.7-.9-.5-.9-.6V6.8"/><g id="g417"><g id="use422"><path id="SVGID-3" data-name="SVGID" class="cls-2" d="M14.9 8.3s.6-.9 1.1-.9.9.4.8 1.1c0 .7-.4 1.7-.8 1.9-.4.1-.8 0-.9-.2-.2-.4 0-1.8 0-1.8l-.2-.2"/></g><g class="cls-11"><path id="path427" class="cls-2" d="M16.2 7.1s-.3.2-.5.8c-.2.6-.4 1.2-.4 1.7s0 1 .2 1.1c.1 0-.9-.2-.9-.2l.3-1.6V7.6l1-.9.3.5z"/></g></g><path id="path429" class="cls-2" d="M16.2 7.1s-.3.2-.5.8c-.2.6-.4 1.2-.4 1.7s.2 1.1.3 1.2c.1 0-1-.3-1-.3l.3-1.6V7.6l1-.9.3.5z"/><path id="path431" class="cls-4" d="M14.9 8.3s.6-.9 1.1-.9.9.4.8 1.1c0 .7-.4 1.7-.8 1.9-.4.1-.8 0-.9-.2-.2-.4 0-1.8 0-1.8l-.2-.2"/><g id="g433"><g id="use438"><path id="SVGID-4" data-name="SVGID" class="cls-2" d="M9.5 6.4s1.4-1.5 1.7-1.6c.3 0 .6 0 .9.2.3.3.8 2.3.8 2.5 0 .1 0 .9-.7.9s-.8 0-1-.4c-.1-.1-.2-.5-.3-.9l-.2-.6"/></g><g class="cls-13"><path id="path443" class="cls-2" d="M11 4.6s.3.2 0 .4c-.3.3 0 1.1 0 1.6.3 1 .5 1.4.8 1.4.3 0 .8 0 .9-.2.2-.2-.1.5-.1.5l-1.5.3-.7-1-.7-1 .3-.5v-.9l.8-.5z"/></g></g><path id="path445" class="cls-3" d="M10.2 5.5s.6-.6.9-.7c.3 0 .6 0 .9.2.3.3.8 2.3.8 2.5 0 .1 0 .9-.7.9s-.9-.2-1.3-1.3c-.2-.5-.3-.9-.3-.9"/><g id="g447"><g id="use452"><path id="SVGID-5" data-name="SVGID" class="cls-2" d="M8.2 6.7c.2-.1.4-.1.4-.1s.2.2.9 0 .9-.5.9-.7c0-.2-.1-.3-.3-.4-.2 0-.4-.4-.8-.6-.4-.2-.6 0-.8 0-.2 0-.8.9-.9 1.2 0 .4.2.9.2.9l.4-.2z"/></g><g class="cls-12"><path id="path457" class="cls-2" d="M10.2 6s-.6.3-1.2.2c-.4 0-.6-.3-.7-.8 0-.5.2-1 .2-1L7 6l.8 1.3 2.4-.7v-.7z"/></g></g><path id="path459" class="cls-4" d="M7.8 7s-.3-.6-.2-1c0-.4.7-1.2.9-1.2.2 0 .4-.2.8 0s.6.5.8.6c.2 0 .3.2.3.4s-.1.5-.9.7c-.9.2-1.4-.6-1.4-.6"/><ellipse id="ellipse461" class="cls-7" cx="10.1" cy="11.3" rx=".5" ry=".7" transform="rotate(-66.1 10.069 11.254)"/><ellipse id="ellipse463" class="cls-7" cx="15" cy="11.3" rx=".3" ry=".7" transform="rotate(-75.7 14.999 11.243)"/><ellipse id="ellipse465" class="cls-7" cx="9.3" cy="9.1" rx=".5" ry=".9" transform="rotate(-70.6 9.301 9.024)"/><ellipse id="ellipse467" class="cls-7" cx="11.6" cy="9.2" rx=".3" ry=".4" transform="rotate(-66.2 11.522 9.15)"/><ellipse id="ellipse469" class="cls-7" cx="12.5" cy="11.7" rx=".3" ry=".4" transform="rotate(-66.1 12.49 11.736)"/><path id="path477" class="cls-4" d="M12.7 15.2s-.1-.7-.5-1c-.4-.3-1.3-.5-2.4-1.1-1.3-.7-2-1.6-2-1.6"/><path id="path479" class="cls-4" d="M7.3 12.2c1.3-.8 0-2.8-.3-3.2-.4-.4-.7-.3-.9-.1-.1.1-.1.3-.1 1.2s0 .9-.3 1.6c-.1.5.3 1.1.7 1.6.4.6 1.7 2.2 1.7 2.2l1.4 1c1.4 1 3.8 3.2 3.8 3.2"/></svg>
