<?xml version="1.0" encoding="UTF-8" standalone="no"?>
<!-- Generator: Adobe Illustrator 14.0.0, SVG Export Plug-In . SVG Version: 6.00 Build 43363)  -->

<svg
   version="1.1"
   id="svg2"
   inkscape:version="1.2.2 (b0a8486541, 2022-12-01, custom)"
   sodipodi:docname="monologo.svg"
   x="0px"
   y="0px"
   width="24px"
   height="24px"
   viewBox="0 0 24 24"
   enable-background="new 0 0 24 24"
   xml:space="preserve"
   xmlns:inkscape="http://www.inkscape.org/namespaces/inkscape"
   xmlns:sodipodi="http://sodipodi.sourceforge.net/DTD/sodipodi-0.dtd"
   xmlns:xlink="http://www.w3.org/1999/xlink"
   xmlns="http://www.w3.org/2000/svg"
   xmlns:svg="http://www.w3.org/2000/svg"><defs
   id="defs1424" />
<sodipodi:namedview
   id="namedview80"
   bordercolor="#666666"
   inkscape:cy="12.997581"
   pagecolor="#ffffff"
   inkscape:cx="11.757148"
   guidetolerance="10"
   inkscape:zoom="27.812867"
   gridtolerance="10"
   objecttolerance="10"
   showgrid="false"
   borderopacity="1"
   inkscape:current-layer="svg2"
   inkscape:window-y="0"
   inkscape:window-x="0"
   inkscape:window-height="935"
   inkscape:window-width="1920"
   inkscape:pageshadow="2"
   inkscape:pageopacity="0"
   inkscape:window-maximized="1"
   inkscape:showpageshadow="2"
   inkscape:pagecheckerboard="0"
   inkscape:deskcolor="#d1d1d1">
	</sodipodi:namedview>
<path
   id="circle493"
   sodipodi:nodetypes="sssss"
   inkscape:connector-curvature="0"
   fill="#E6F3FC"
   d="M11.998,1.063  c-6.067,0-10.993,4.911-10.993,10.957S5.93,22.972,11.998,22.972c6.068,0,10.998-4.907,10.998-10.953S18.066,1.063,11.998,1.063z"
   style="fill:none" />

<path
   id="path471"
   inkscape:connector-curvature="0"
   fill="#94BEF8"
   d="M11.999,0.089c-6.627,0-12,5.353-12,11.956  S5.372,24,11.999,24C18.627,24,24,18.647,24,12.044S18.627,0.089,11.999,0.089z M12.099,22.877c-5.976,0-10.82-4.826-10.82-10.78  s4.845-10.78,10.82-10.78c5.977,0,10.821,4.827,10.821,10.78C22.921,18.051,18.076,22.877,12.099,22.877z"
   style="fill:#000000" />
<g
   id="g1320">
	
		<linearGradient
   id="SVGID_1_"
   gradientUnits="userSpaceOnUse"
   x1="-138.5999"
   y1="-709.9189"
   x2="-138.5999"
   y2="-713.1191"
   gradientTransform="matrix(1 0 0 -1 123.3447 -670.5391)">
		<stop
   offset="0"
   style="stop-color:#F0A829"
   id="stop1306" />
		<stop
   offset="1"
   style="stop-color:#C7671A"
   id="stop1308" />
	</linearGradient>
	
	
		<linearGradient
   id="SVGID_2_"
   gradientUnits="userSpaceOnUse"
   x1="-137.5999"
   y1="-710.4189"
   x2="-137.5999"
   y2="-712.1208"
   gradientTransform="matrix(1 0 0 -1 123.3447 -670.5391)">
		<stop
   offset="0"
   style="stop-color:#FFEBA8"
   id="stop1313" />
		<stop
   offset="1"
   style="stop-color:#F8BE27"
   id="stop1315" />
	</linearGradient>
	
</g>
<linearGradient
   id="SVGID_3_"
   gradientUnits="userSpaceOnUse"
   x1="35.5515"
   y1="46.1875"
   x2="35.6931"
   y2="46.1875">
	<stop
   offset="0"
   style="stop-color:#F0A829"
   id="stop1322" />
	<stop
   offset="1"
   style="stop-color:#C7671A"
   id="stop1324" />
</linearGradient>





<g
   id="g361_2_"
   transform="matrix(0.13116936,0,0,0.1306793,-8.4606486,6.1380018)">
	<path
   id="path363_2_"
   inkscape:connector-curvature="0"
   fill="#F9C896"
   d="M161.532,79.174c0,0-1.295-6.995-4.921-9.999   c-3.626-2.997-12.858-5.082-24.621-11.12c-13.624-7.002-20.057-16.605-20.057-16.605" />
	<path
   id="path365_2_"
   inkscape:connector-curvature="0"
   fill="none"
   stroke="#000000"
   stroke-width="3"
   stroke-linecap="round"
   d="   M161.532,79.174c0,0-1.295-6.995-4.921-9.999c-3.626-2.997-12.858-5.082-24.621-11.12c-13.624-7.002-20.057-16.605-20.057-16.605" />
</g>



<ellipse
   id="ellipse385_2_"
   sodipodi:cx="134.519"
   sodipodi:cy="43.019001"
   sodipodi:rx="7.0139999"
   sodipodi:ry="5.177"
   transform="matrix(0.4052 -0.9142 0.9142 0.4052 -4.7401 15.1401)"
   fill="none"
   cx="9.265"
   cy="11.213"
   rx="0.677"
   ry="0.919">
</ellipse>
<path
   id="path387_2_"
   inkscape:connector-curvature="0"
   fill="none"
   d="M9.397,4.186c0,0-0.865,0.463-1.654,0.326  c-0.563-0.098-0.835-0.42-0.96-1.047C6.658,2.84,7.097,2.184,7.097,2.184l-1.935,2.1l1.059,1.75L9.397,5.1V4.186z" />
<path
   id="path389_2_"
   inkscape:connector-curvature="0"
   fill="none"
   d="M10.475,2.371c0,0-0.25,1.326,0.112,2.64  c0.363,1.313,0.764,2.017,1.129,2.017s1.006-0.065,1.251-0.311c0.246-0.245-0.139,0.703-0.139,0.703l-1.96,0.338L10,6.406  L9.461,5.295V4.362l0.124-0.567L9.397,3.074L10.475,2.371z" />

<path
   id="path393_2_"
   inkscape:connector-curvature="0"
   fill="none"
   stroke="#6A3011"
   stroke-width="0.75"
   stroke-linecap="round"
   d="  M20.531,17.84c0,0-0.567-0.609-0.743-0.848c-0.175-0.24-0.099-1.416-0.256-3.198c-0.169-1.917-0.684-2.291-0.684-2.291"
   style="stroke:#000000;stroke-opacity:1" />

<path
   id="path397_2_"
   inkscape:connector-curvature="0"
   fill="none"
   stroke="#573212"
   stroke-width="0.8262"
   d="m 4.835,7.758 c 0,0 0.229,-1.395 1.387,-2.18 0.292,-0.1975 0.9235,-0.58475 2.010375,-0.707125 0.4280851,-0.0482 1.2398711,0.00944 1.816323,0.071198 M 18.082302,8.761367 C 19.616302,11.886367 17.319,15.968 14.368,15.619 12.972,15.455 12.083,15.178 12.083,15.178"
   style="stroke:#000000;stroke-opacity:1"
   sodipodi:nodetypes="ccscccc" />
<path
   id="path401_2_"
   inkscape:connector-curvature="0"
   fill="none"
   d="M4.674,7.787c0,0,0.612,0.762,0.85,2.05  c0.238,1.287,0.164,1.595,0,1.974c-0.163,0.379-0.197,0.629-0.197,0.629S5.26,12.5,5.523,12.434  c0.066-0.016,0.516,0.131,0.613-0.106c0.297-0.714,0.666-2.089,0.666-2.089L5.721,7.572L4.674,7.787L4.674,7.787z" />
<g
   id="g403_2_"
   transform="matrix(0.13116936,0,0,0.1306793,-8.4606486,6.1380018)"
   style="fill:#000000">
	<g
   id="use408_2_"
   style="fill:#000000">
		<path
   id="SVGID_9_"
   inkscape:connector-curvature="0"
   fill="#FAC997"
   d="M162.306-4.284c0,0,3.06-10.387,5.226-11.852    c2.167-1.48,7.475-3.079,12.329-0.142c4.676,2.832,4.638,8.646,4.318,14.834c-0.223,4.536-0.03,18.167-0.03,18.167    s-0.119,7.331-8.123,7.331c-7.996,0-8.666-4.828-8.994-5.829c-0.335-1.001-0.953-20.79-0.953-20.79"
   style="fill:none" />
	</g>
	<g
   id="g1361"
   style="fill:#000000">
		<defs
   id="defs1355"><path
     id="SVGID_4_"
     d="M162.306-4.284c0,0,3.06-10.387,5.226-11.852c2.167-1.48,7.475-3.079,12.329-0.142     c4.676,2.832,4.638,8.646,4.318,14.834c-0.223,4.536-0.03,18.167-0.03,18.167s-0.119,7.331-8.123,7.331     c-7.996,0-8.666-4.828-8.994-5.829c-0.335-1.001-0.953-20.79-0.953-20.79" /></defs>
		<clipPath
   id="SVGID_5_">
			<use
   xlink:href="#SVGID_4_"
   overflow="visible"
   id="use1357" />
		</clipPath>
		<path
   id="path413_2_"
   inkscape:connector-curvature="0"
   clip-path="url(#SVGID_5_)"
   fill="#E88C5D"
   d="M170.861-21.196    c0,0-0.372,14.998,0,26.88c0.32,10.103-0.246,11.038,2.442,16.366c2.688,5.336,3.812,6.255,3.812,6.255l-12.709-1.001    l-2.107-16.874l0.834-14.102l-3.402-8.669L170.861-21.196z"
   style="fill:#000000" />
	</g>
</g>
<path
   id="path415_2_"
   inkscape:connector-curvature="0"
   fill="none"
   stroke="#6A3011"
   stroke-width="0.75"
   stroke-linecap="round"
   d="  M12.829,5.5c0,0,0.401-1.279,0.686-1.471c0.284-0.193,0.98-0.402,1.617-0.019c0.613,0.37,0.608,1.13,0.566,1.938  c-0.029,0.593-0.004,2.374-0.004,2.374s-0.016,0.958-1.065,0.958c-1.049,0-1.137-0.631-1.18-0.762  c-0.044-0.131-0.088-3.311-0.088-3.311"
   style="stroke:#000000;stroke-opacity:1" />
<g
   id="g417_2_"
   transform="matrix(0.13116936,0,0,0.1306793,-8.4606486,6.1380018)">
	<g
   id="use422_2_"
   style="fill:#000000">
		<path
   id="SVGID_8_"
   inkscape:connector-curvature="0"
   fill="#FAC997"
   d="M184.076,8.225c0,0,6.455-9.506,11.287-9.005    s8.666,4.506,8.502,11.665c-0.171,7.174-3.67,17.831-7.832,18.996c-4.169,1.173-7.892,0.284-9.001-2.16    c-1.668-3.669,0.998-18.398,0.998-18.398l-1.668-1.607"
   style="fill:none" />
	</g>
	<g
   id="g1374">
		<defs
   id="defs1368"><path
     id="SVGID_11_"
     d="M184.076,8.225c0,0,6.455-9.506,11.287-9.005s8.666,4.506,8.502,11.665     c-0.171,7.174-3.67,17.831-7.832,18.996c-4.169,1.173-7.892,0.284-9.001-2.16c-1.668-3.669,0.998-18.398,0.998-18.398     l-1.668-1.607" /></defs>
		<clipPath
   id="SVGID_12_">
			<use
   xlink:href="#SVGID_11_"
   overflow="visible"
   id="use1370" />
		</clipPath>
		<path
   id="path427_2_"
   inkscape:connector-curvature="0"
   clip-path="url(#SVGID_12_)"
   fill="#E88C5D"
   d="M197.738-3.567    c0,0-3.194,2.376-5.159,8.116c-1.965,5.754-3.842,12.629-3.715,17.636c0.127,4.992,0.499,10.387,1.623,11.135    c1.124,0.732-9.373-1.943-9.373-1.943l3.186-16.769V0.932l10.565-9.147L197.738-3.567z" />
	</g>
</g>
<path
   id="path429_2_"
   inkscape:connector-curvature="0"
   fill="none"
   d="M17.476,5.672c0,0-0.419,0.311-0.677,1.061  c-0.258,0.752-0.504,1.65-0.487,2.305c0.017,0.652,0.213,1.455,0.36,1.551c0.148,0.097-1.377-0.35-1.377-0.35l0.418-2.191V6.26  l1.386-1.195L17.476,5.672z" />
<path
   id="path431_2_"
   inkscape:connector-curvature="0"
   fill="none"
   stroke="#6A3011"
   stroke-width="0.75"
   stroke-linecap="round"
   d="m 15.684,7.213 c 0,0 0.847,-1.242 1.48,-1.177 0.633,0.065 1.137,0.589 1.115,1.524 -0.022,0.938 -0.481,2.33 -1.027,2.482 -0.547,0.153 -1.035,0.037 -1.181,-0.282 -0.219,-0.479 0.131,-2.404 0.131,-2.404 l 0.277763,-1.0665898"
   style="fill:none;stroke:#000000;stroke-opacity:1"
   sodipodi:nodetypes="csccccc" />

<path
   id="path445_2_"
   inkscape:connector-curvature="0"
   fill="none"
   stroke="#6A3011"
   stroke-width="0.7263"
   stroke-linecap="round"
   d="  M9.475,3.566c0,0,0.782-0.863,1.22-0.949c0.438-0.088,0.756-0.131,1.165,0.217c0.409,0.35,1.088,3.072,1.108,3.268  c0.021,0.195,0.044,1.176-0.886,1.242c-0.929,0.064-1.174-0.289-1.716-1.766c-0.226-0.613-0.459-1.24-0.459-1.24"
   style="stroke:#000000;stroke-opacity:1;fill:none" />
<g
   id="g447_2_"
   transform="matrix(0.13116936,0,0,0.1306793,-8.4606486,6.1380018)"
   style="fill:none">
	<g
   id="use452_2_"
   style="fill:none">
		<path
   id="SVGID_6_"
   inkscape:connector-curvature="0"
   fill="#FAC997"
   d="M115.686-7.931c2.248-1.128,3.752-1.255,3.752-1.255    s2.494,2.003,9.425-0.254c7.356-2.406,9.016-5.171,8.845-7.503c-0.164-2.332-1.176-3.333-3.008-4.006    c-1.839-0.665-4.504-3.998-8.338-5.993c-3.834-2.003-6.001-0.673-7.832,0c-1.831,0.658-7.996,8.833-9.001,12.659    c-0.998,3.841,1.757,8.699,1.757,8.699S113.17-6.676,115.686-7.931z"
   style="fill:none" />
	</g>
	<g
   id="g1401"
   style="fill:none">
		<defs
   id="defs1395"><path
     id="SVGID_15_"
     d="M115.686-7.931c2.248-1.128,3.752-1.255,3.752-1.255s2.494,2.003,9.425-0.254     c7.356-2.406,9.016-5.171,8.845-7.503c-0.164-2.332-1.176-3.333-3.008-4.006c-1.839-0.665-4.504-3.998-8.338-5.993     c-3.834-2.003-6.001-0.673-7.832,0c-1.831,0.658-7.996,8.833-9.001,12.659c-0.998,3.841,1.757,8.699,1.757,8.699     S113.17-6.676,115.686-7.931z" /></defs>
		<clipPath
   id="SVGID_16_">
			<use
   xlink:href="#SVGID_15_"
   overflow="visible"
   id="use1397" />
		</clipPath>
		<path
   id="path457_2_"
   inkscape:connector-curvature="0"
   clip-path="url(#SVGID_16_)"
   fill="#E88C5D"
   d="M136.145-14.941    c0,0-6.596,3.542-12.612,2.496c-4.296-0.747-6.366-3.213-7.318-8.011c-0.953-4.783,2.397-9.805,2.397-9.805l-14.749,16.067    l8.07,13.392l24.211-7.144V-14.941z"
   style="fill:none" />
	</g>
</g>
<path
   id="path459_2_"
   inkscape:connector-curvature="0"
   fill="none"
   stroke="#6A3011"
   stroke-width="0.75"
   stroke-linecap="round"
   d="  M6.222,5.578c0,0-0.446-0.805-0.315-1.307c0.132-0.5,0.94-1.568,1.181-1.654c0.24-0.088,0.524-0.262,1.027,0  C8.617,2.878,8.967,3.313,9.208,3.4c0.24,0.088,0.373,0.219,0.395,0.523c0.022,0.305-0.178,0.727-1.16,0.98  c-1.256,0.324-1.88-0.741-1.88-0.741"
   style="stroke:#000000;stroke-opacity:1" />
<ellipse
   id="ellipse461_2_"
   sodipodi:cx="134.519"
   sodipodi:cy="43.019001"
   sodipodi:rx="7.0139999"
   sodipodi:ry="5.177"
   transform="matrix(0.4052 -0.9142 0.9142 0.4052 -4.74 15.1402)"
   fill="#94541E"
   cx="9.266"
   cy="11.213"
   rx="0.677"
   ry="0.919"
   style="fill:#000000">
</ellipse>
<ellipse
   id="ellipse463_2_"
   sodipodi:cx="184.918"
   sodipodi:cy="43.019001"
   sodipodi:rx="7.2020001"
   sodipodi:ry="3.5439999"
   transform="matrix(0.2477 -0.9688 0.9688 0.2477 1.081 23.8171)"
   fill="#94541E"
   cx="15.877"
   cy="11.212"
   rx="0.463"
   ry="0.944"
   style="fill:#000000">
</ellipse>
<ellipse
   id="ellipse465_2_"
   sodipodi:cx="126.753"
   sodipodi:cy="20.469"
   sodipodi:rx="9.1429996"
   sodipodi:ry="4.6269999"
   transform="matrix(0.3319 -0.9433 0.9433 0.3319 -2.2871 13.3019)"
   fill="#94541E"
   cx="8.247"
   cy="8.266"
   rx="0.605"
   ry="1.198"
   style="fill:#000000">
</ellipse>
<ellipse
   id="ellipse467_2_"
   sodipodi:cx="149.448"
   sodipodi:cy="21.861"
   sodipodi:rx="3.8989999"
   sodipodi:ry="2.8770001"
   transform="matrix(0.4041 -0.9147 0.9147 0.4041 -1.0378 15.3016)"
   fill="#94541E"
   cx="11.225"
   cy="8.447"
   rx="0.376"
   ry="0.512"
   style="fill:#000000">
</ellipse>
<ellipse
   id="ellipse469_2_"
   sodipodi:cx="159.392"
   sodipodi:cy="47.594002"
   sodipodi:rx="4.5549998"
   sodipodi:ry="3.362"
   transform="matrix(0.4054 -0.9141 0.9141 0.4054 -3.3475 18.4756)"
   fill="#94541E"
   cx="12.529"
   cy="11.811"
   rx="0.44"
   ry="0.597"
   style="fill:#000000">
</ellipse>
<path
   id="path477_2_"
   inkscape:connector-curvature="0"
   fill="none"
   stroke="#6A3011"
   stroke-width="0.75"
   stroke-linecap="round"
   d="  M12.727,16.484c0,0-0.17-0.914-0.646-1.307c-0.476-0.392-1.687-0.664-3.229-1.453c-1.787-0.915-2.631-2.17-2.631-2.17"
   style="fill:#000000;stroke:#000000;stroke-opacity:1" />
<path
   id="path479_2_"
   inkscape:connector-curvature="0"
   fill="none"
   stroke="#6A3011"
   stroke-width="0.75"
   stroke-linecap="round"
   d="  M5.523,12.434c1.738-1.11,0.132-3.707-0.36-4.295C4.671,7.55,4.18,7.779,4.016,7.941C3.852,8.105,3.818,8.367,3.818,9.51  c0,1.144-0.123,1.215-0.368,2.125c-0.189,0.701,0.368,1.404,0.894,2.188c0.524,0.784,2.229,2.94,2.229,2.94s0,0,1.836,1.274  c1.837,1.273,5.11,4.307,5.11,4.307"
   style="stroke:#000000;stroke-opacity:1" />

</svg>
